<?xml version='1.0' encoding='utf-8'?>
<svg xmlns="http://www.w3.org/2000/svg" width="1410" height="1305" viewBox="0 0 373.0625 345.28126" version="1.1" id="svg6541"> <defs id="defs6535"/> <metadata id="metadata6538"> </metadata> <g id="layer1" transform="translate(0,48.281288)"> <g transform="matrix(0.4631761,0,0,0.4631761,828.54136,-178.6436)" id="g7140" style="stroke-width:2.15900612"> <path style="fill:#ff0000;stroke:none;stroke-width:0.57123697px;stroke-linecap:butt;stroke-linejoin:miter;stroke-opacity:1" d="M -1695.6055,455.75 -1397.7289,283.77083 -1099.8523,455.75 -1397.7289,627.72914 -1695.6055,455.75" id="path6427"/> <path style="fill:#496764;fill-opacity:1;stroke:none;stroke-width:0.57123697px;stroke-linecap:butt;stroke-linejoin:miter;stroke-opacity:1" d="m -1397.7289,336.68749 -229.1359,132.29168 229.1359,132.29164 229.1359,-132.29164 z" id="path6429"/> <path style="fill:#a02c2c;stroke:none;stroke-width:0.57123697px;stroke-linecap:butt;stroke-linejoin:miter;stroke-opacity:1" d="m -1626.8648,468.97917 -22.9136,-13.22917 252.0495,-145.52084 v 26.45833 z" id="path6431"/> <path style="fill:#ff5555;stroke:none;stroke-width:0.57123697px;stroke-linecap:butt;stroke-linejoin:miter;stroke-opacity:1" d="m -1168.593,468.97917 22.9136,-13.22917 -252.0495,-145.52084 v 26.45833 z" id="path6433"/> <path style="fill:#354b49;fill-opacity:1;stroke:none;stroke-width:0.57123697px;stroke-linecap:butt;stroke-linejoin:miter;stroke-opacity:1" d="m -1374.8153,349.91666 -229.1359,132.29168 -22.9136,-13.22917 229.1359,-132.29168 z" id="path6435"/> <path style="fill:#ff5555;fill-opacity:1;stroke:none;stroke-width:0.57123697px;stroke-linecap:butt;stroke-linejoin:miter;stroke-opacity:1" d="m -1695.6055,455.75 v 26.45834 l 297.8766,171.97913 v -26.45833 z" id="path6437"/> <path style="fill:#a02c2c;fill-opacity:1;stroke:none;stroke-width:0.57123697px;stroke-linecap:butt;stroke-linejoin:miter;stroke-opacity:1" d="m -1397.7289,627.72914 v 26.45833 l 297.8766,-171.97913 V 455.75 Z" id="path6439"/> <path style="fill:#e6e6e6;stroke:none;stroke-width:0.57123697px;stroke-linecap:butt;stroke-linejoin:miter;stroke-opacity:1" d="m -1672.692,495.43745 v 264.58333 l 160.3954,92.60417 22.9133,-13.22917 68.7411,39.6875 -22.9139,13.22917 45.8272,26.45833 V 654.18745 Z" id="path6441"/> <path id="path6443" d="m -1099.8523,482.20836 -22.9135,13.22916 v 264.58331 l -274.9631,158.74999 V 654.18749 Z" style="fill:#cccccc;stroke:none;stroke-width:0.57123697px;stroke-linecap:butt;stroke-linejoin:miter;stroke-opacity:1"/> <path style="fill:#ababab;fill-opacity:1;stroke:none;stroke-width:0.57123697px;stroke-linecap:butt;stroke-linejoin:miter;stroke-opacity:1" d="m -1397.7289,680.64581 274.9631,-158.74997 V 495.4375 l -274.9631,158.74997 z" id="path6445"/> <path style="fill:#7a99ff;fill-opacity:1;stroke:none;stroke-width:0.57123697px;stroke-linecap:butt;stroke-linejoin:miter;stroke-opacity:1" d="m -1420.6425,879.08331 v -158.75 l -68.7408,-39.6875 v 158.75 z" id="path6447"/> <path style="fill:#cccccc;fill-opacity:1;stroke:none;stroke-width:0.57123697px;stroke-linecap:butt;stroke-linejoin:miter;stroke-opacity:1" d="m -1489.3833,680.64581 -22.9135,-13.22917 v 185.20833 l 22.9135,-13.22916" id="path6449"/> <path style="fill:#ff0000;fill-opacity:1;stroke:none;stroke-width:0.57123697px;stroke-linecap:butt;stroke-linejoin:miter;stroke-opacity:1" d="m -1489.3833,839.39581 v -26.45834 l -22.9135,13.22917 v 26.45833 z" id="path6451"/> <path style="fill:#ff5555;fill-opacity:1;stroke:none;stroke-width:0.57123697px;stroke-linecap:butt;stroke-linejoin:miter;stroke-opacity:1" d="m -1512.2968,826.16664 -160.3952,-92.60417 v 26.45834 l 160.3952,92.60416 z" id="path6453"/> <path style="fill:#ff5555;fill-opacity:1;stroke:none;stroke-width:0.57123697px;stroke-linecap:butt;stroke-linejoin:miter;stroke-opacity:1" d="m -1397.7289,918.7708 v -26.45833 l -22.9136,-13.22916 v 26.45833 z" id="path6455"/> <path style="fill:#ffffff;stroke:none;stroke-width:0.57123697px;stroke-linecap:butt;stroke-linejoin:miter;stroke-opacity:1" d="m -1443.5561,892.31247 22.9136,-13.22916 v 26.45833 z" id="path6457"/> <path style="fill:#a02c2c;fill-opacity:1;stroke:none;stroke-width:0.57123697px;stroke-linecap:butt;stroke-linejoin:miter;stroke-opacity:1" d="m -1397.7289,918.7708 274.9631,-158.74999 v -26.45834 l -274.9631,158.75 z" id="path6459"/> <path style="fill:#7a99ff;fill-opacity:1;stroke:none;stroke-width:0.57123697px;stroke-linecap:butt;stroke-linejoin:miter;stroke-opacity:1" d="m -1535.2104,654.18747 -114.568,-66.14583 v 105.83333 l 114.568,66.14584 z" id="path6461"/> <path style="fill:#ababab;fill-opacity:1;stroke:none;stroke-width:0.57123697px;stroke-linecap:butt;stroke-linejoin:miter;stroke-opacity:1" d="m -1649.7784,588.04164 22.9136,13.22917 v 79.375 l -22.9136,13.22916 z" id="path6463"/> <path style="fill:#ffffff;stroke:none;stroke-width:0.57123697px;stroke-linecap:butt;stroke-linejoin:miter;stroke-opacity:1" d="m -1535.2104,760.02081 v -26.45834 l -91.6544,-52.91666 -22.9136,13.22916 z" id="path6465"/> <path id="path6467" d="m -1374.8153,720.33333 114.5679,-66.14583 v 105.83333 l -114.5679,66.14584 z" style="fill:#7a99ff;fill-opacity:1;stroke:none;stroke-width:0.57123697px;stroke-linecap:butt;stroke-linejoin:miter;stroke-opacity:1"/> <path id="path6469" d="m -1260.2474,654.1875 -22.9136,13.22917 v 79.375 l 22.9136,13.22916 z" style="fill:#ababab;fill-opacity:1;stroke:none;stroke-width:0.57123697px;stroke-linecap:butt;stroke-linejoin:miter;stroke-opacity:1"/> <path id="path6471" d="m -1374.8153,826.16667 v -26.45834 l 91.6543,-52.91666 22.9136,13.22916 z" style="fill:#ffffff;stroke:none;stroke-width:0.57123697px;stroke-linecap:butt;stroke-linejoin:miter;stroke-opacity:1"/> <path style="fill:#7a99ff;fill-opacity:1;stroke:none;stroke-width:0.57123697px;stroke-linecap:butt;stroke-linejoin:miter;stroke-opacity:1" d="m -1260.2474,654.18747 114.568,-66.14583 v 105.83333 l -114.568,66.14584 z" id="path6473"/> <path style="fill:#ababab;fill-opacity:1;stroke:none;stroke-width:0.57123697px;stroke-linecap:butt;stroke-linejoin:miter;stroke-opacity:1" d="m -1145.6794,588.04164 -22.9136,13.22917 v 79.375 l 22.9136,13.22916 z" id="path6475"/> <path style="fill:#ffffff;stroke:none;stroke-width:0.57123697px;stroke-linecap:butt;stroke-linejoin:miter;stroke-opacity:1" d="m -1260.2474,760.02081 v -26.45834 l 91.6544,-52.91666 22.9136,13.22916 z" id="path6477"/> <path style="fill:#496764;fill-opacity:1;stroke:none;stroke-width:0.57123697px;stroke-linecap:butt;stroke-linejoin:miter;stroke-opacity:1" d="m -1787.2599,773.24996 389.531,224.89583 412.44459,-238.12499 -137.48149,-79.375 v 79.375 l -274.9631,158.74999 -22.9136,-13.22916 v -26.45834 l -68.7407,-39.6875 -22.9136,13.22917 -160.3952,-92.60416 v -52.91665 z" id="path6479"/> <path style="fill:#83a7a4;fill-opacity:1;stroke:none;stroke-width:0.57123697px;stroke-linecap:butt;stroke-linejoin:miter;stroke-opacity:1" d="m -1397.7289,1024.6041 v -26.45831 l -389.531,-224.89583 v 26.45833 z" id="path6481"/> <path id="path6483" d="m -1397.7289,1024.6042 v -26.45839 l 389.531,-224.89583 v 26.45833 z" style="fill:#354b49;fill-opacity:1;stroke:none;stroke-width:0.57123697px;stroke-linecap:butt;stroke-linejoin:miter;stroke-opacity:1"/> <path style="fill:#354b49;fill-opacity:1;stroke:none;stroke-width:0.57123697px;stroke-linecap:butt;stroke-linejoin:miter;stroke-opacity:1" d="m -1489.3832,812.93746 v 26.45833 l 68.7407,39.6875 v -26.45833 z" id="path6485"/> <path id="path6487" d="m -1511.9359,354.82204 a 101.64633,47.702464 40.742613 0 0 -83.0673,10.41271 101.64633,47.702464 40.742613 0 0 3.774,19.37214 l -58.1882,-33.59495 v 79.375 l 274.9631,158.74998 v -79.375 l -58.1035,-33.54603 a 101.64633,47.702464 40.742613 0 0 3.6897,-15.06301 101.64633,47.702464 40.742613 0 0 -83.0678,-106.33084 z" style="fill:#a02c2c;fill-opacity:1;stroke:none;stroke-width:0.57123697px;stroke-linecap:butt;stroke-linejoin:miter;stroke-opacity:1"/> <path style="fill:#ff5555;fill-opacity:1;stroke:none;stroke-width:0.57123697px;stroke-linecap:butt;stroke-linejoin:miter;stroke-opacity:1" d="m -1535.2105,366.95592 a 101.64633,47.702464 40.742613 0 0 -83.0673,10.41271 101.64633,47.702464 40.742613 0 0 3.774,19.37214 l -58.1882,-33.59495 v 79.375 l 274.9631,158.74998 v -79.375 l -58.1035,-33.54603 a 101.64633,47.702464 40.742613 0 0 3.6897,-15.06301 101.64633,47.702464 40.742613 0 0 -83.0678,-106.33084 z" id="path6489"/> <path style="fill:#a02c2c;fill-opacity:1;stroke:none;stroke-width:0.57123697px;stroke-linecap:butt;stroke-linejoin:miter;stroke-opacity:1" d="m -1374.8153,588.04163 -22.9136,-13.22917 v 26.45834 z" id="path6491"/> <path style="fill:#a02c2c;fill-opacity:1;stroke:none;stroke-width:0.57123697px;stroke-linecap:butt;stroke-linejoin:miter;stroke-opacity:1" d="m -1672.692,363.14583 23.2746,-12.13389 3.6783,27.6712 z" id="path6493"/> <path style="fill:#ff5555;fill-opacity:1;stroke:none;stroke-width:0.57123697px;stroke-linecap:butt;stroke-linejoin:miter;stroke-opacity:1" d="m -1695.6056,455.74998 -45.8271,79.375 297.8766,171.97916 45.8272,-79.375 z" id="path6495"/> <path style="fill:#a02c2c;fill-opacity:1;stroke:none;stroke-width:0.57123697px;stroke-linecap:butt;stroke-linejoin:miter;stroke-opacity:1" d="m -1443.5561,707.10413 45.8272,-26.45833 v -52.91667 z" id="path6497"/> <path style="fill:#ff0000;fill-opacity:1;stroke:none;stroke-width:0.57123697px;stroke-linecap:butt;stroke-linejoin:miter;stroke-opacity:1" d="m -1741.4327,535.12496 v 26.45834 l 297.8766,171.97916 v -26.45833 z" id="path6499"/> <path style="fill:#a02c2c;fill-opacity:1;stroke:none;stroke-width:0.57123697px;stroke-linecap:butt;stroke-linejoin:miter;stroke-opacity:1" d="m -1443.5561,733.56246 45.8272,-26.45833 V 680.6458 l -45.8272,26.45833 z" id="path6501"/> <path style="fill:#ffffff;stroke:none;stroke-width:0.57123697px;stroke-linecap:butt;stroke-linejoin:miter;stroke-opacity:1" d="m -1718.5191,548.35413 45.8271,-79.375 22.9136,13.22917 -45.8271,79.375 z" id="path6503"/> <path style="fill:#e6e6e6;stroke:none;stroke-width:0.57123697px;stroke-linecap:butt;stroke-linejoin:miter;stroke-opacity:1" d="m -1718.5191,548.35413 v 26.45833 l 22.9136,13.22917 V 561.5833 Z" id="path6505"/> <path id="path6507" d="m -1672.692,574.81248 45.8272,-79.375 22.9136,13.22917 -45.8272,79.375 z" style="fill:#ffffff;stroke:none;stroke-width:0.57123697px;stroke-linecap:butt;stroke-linejoin:miter;stroke-opacity:1"/> <path id="path6509" d="m -1672.692,574.81248 v 26.45833 l 22.9136,13.22917 v -26.45833 z" style="fill:#e6e6e6;stroke:none;stroke-width:0.57123697px;stroke-linecap:butt;stroke-linejoin:miter;stroke-opacity:1"/> <path style="fill:#ffffff;stroke:none;stroke-width:0.57123697px;stroke-linecap:butt;stroke-linejoin:miter;stroke-opacity:1" d="m -1626.8648,601.27081 45.8272,-79.375 22.9136,13.22917 -45.8272,79.375 z" id="path6511"/> <path style="fill:#e6e6e6;stroke:none;stroke-width:0.57123697px;stroke-linecap:butt;stroke-linejoin:miter;stroke-opacity:1" d="m -1626.8648,601.27081 v 26.45833 l 22.9136,13.22917 v -26.45833 z" id="path6513"/> <path id="path6515" d="m -1581.0376,627.72915 45.8272,-79.375 22.9136,13.22917 -45.8272,79.375 z" style="fill:#ffffff;stroke:none;stroke-width:0.57123697px;stroke-linecap:butt;stroke-linejoin:miter;stroke-opacity:1"/> <path id="path6517" d="m -1581.0376,627.72915 v 26.45833 l 22.9136,13.22917 v -26.45833 z" style="fill:#e6e6e6;stroke:none;stroke-width:0.57123697px;stroke-linecap:butt;stroke-linejoin:miter;stroke-opacity:1"/> <path style="fill:#ffffff;stroke:none;stroke-width:0.57123697px;stroke-linecap:butt;stroke-linejoin:miter;stroke-opacity:1" d="m -1535.2104,654.18748 45.8271,-79.375 22.9136,13.22917 -45.8271,79.375 z" id="path6519"/> <path style="fill:#e6e6e6;stroke:none;stroke-width:0.57123697px;stroke-linecap:butt;stroke-linejoin:miter;stroke-opacity:1" d="m -1535.2104,654.18748 v 26.45833 l 22.9136,13.22917 v -26.45833 z" id="path6521"/> <path id="path6523" d="m -1489.3833,680.64581 45.8272,-79.375 22.9136,13.22917 -45.8272,79.375 z" style="fill:#ffffff;stroke:none;stroke-width:0.57123697px;stroke-linecap:butt;stroke-linejoin:miter;stroke-opacity:1"/> <path id="path6525" d="m -1489.3833,680.64581 v 26.45833 l 22.9136,13.22917 v -26.45833 z" style="fill:#e6e6e6;stroke:none;stroke-width:0.57123697px;stroke-linecap:butt;stroke-linejoin:miter;stroke-opacity:1"/> <path style="opacity:0.25;fill:#000000;stroke:none;stroke-width:0.57123697px;stroke-linecap:butt;stroke-linejoin:miter;stroke-opacity:1" d="m -1672.692,601.2708 v 26.45833 l 229.1359,132.29167 45.8272,-26.45834 v -26.45833 l -45.8272,26.45833 z" id="path6527"/> <path style="fill:#354b49;fill-opacity:1;stroke:none;stroke-width:0.57123697px;stroke-linecap:butt;stroke-linejoin:miter;stroke-opacity:1" d="m -1008.1979,773.24996 22.91359,-13.22916 v 26.45833 l -22.91359,13.22916 z" id="path6529"/> <text transform="matrix(0.80380748,0.46407848,0,1.244079,0,0)" id="text6533" y="1115.3313" x="-1997.6105" style="font-style:normal;font-weight:normal;font-size:55.77135468px;line-height:1.25;font-family:sans-serif;letter-spacing:0px;word-spacing:0px;fill:#000000;fill-opacity:1;stroke:none;stroke-width:0.57123697"><tspan style="font-weight:bold;fill:#ffffff;stroke-width:0.57123697" y="1115.3313" x="-1997.6105" id="tspan6531">SHOP</tspan></text> </g> </g> </svg>